<?xml version="1.0" encoding="UTF-8"?>
<svg width="390px" height="104px" viewBox="0 0 390 104" version="1.1" xmlns="http://www.w3.org/2000/svg" xmlns:xlink="http://www.w3.org/1999/xlink">
    <!-- Generator: Sketch 51.2 (57519) - http://www.bohemiancoding.com/sketch -->
    <title>SVG Layer</title>
    <desc>Created with Sketch.</desc>
    <defs></defs>
    <g id="Page-1" stroke="none" stroke-width="1" fill="none" fill-rule="evenodd">
        <g id="SVG-Layer">
            <g id="svg">
                <g id="svgg">
                    <path d="M132.75,7.169 C122.68,12.142 117.924,12.961 97.417,13.252 C87.719,13.389 85.058,13.712 80.881,15.262 C71.813,18.624 65.723,25.782 61.889,37.583 C60.297,42.485 58.296,47.891 57.053,50.648 C49.559,67.269 40.872,77.903 30.583,83.047 C16.281,90.199 4.515,82.324 9.923,69.219 C11.343,65.779 13.875,62.935 20.208,57.668 C22.098,56.096 21.933,56.026 19.368,57.316 C4.009,65.038 -2.802,78.037 2.436,89.63 C2.654,90.113 2.833,90.549 2.833,90.598 C2.833,90.845 4.945,93.996 5.82,95.054 C11.097,101.433 20.593,104.576 29.307,102.828 C31.878,102.312 36.183,101.066 36.75,100.673 C36.842,100.609 37.292,100.421 37.75,100.254 C45.808,97.319 57.79,87.616 66.751,76.768 C67.575,75.77 68.629,74.495 69.092,73.935 C70.006,72.83 72.103,70.069 74.41,66.932 C76.823,63.652 77.181,63.435 80.744,63.085 C83.772,62.789 87.572,62.537 90.917,62.411 C102.844,61.962 107.229,58.88 111.776,47.75 C112.819,45.198 112.861,45.249 110.653,46.378 C104.645,49.448 102.044,49.989 92.667,50.118 C83.256,50.247 82.526,49.987 82.731,46.583 C83.326,36.654 90.567,30.393 102.667,29.343 C103.813,29.243 106.063,29.052 107.667,28.917 C119.514,27.922 128.863,21.512 134.043,10.833 C134.799,9.275 136,6.162 136,5.76 C136,5.581 135.729,5.698 132.75,7.169 M145.667,35.018 C138.137,35.523 133.24,37.773 129.199,42.583 C127.233,44.923 125.971,46.961 122.956,52.667 C122.495,53.538 121.54,55.337 120.833,56.667 C120.126,57.996 119.151,59.833 118.666,60.75 C118.181,61.667 117.58,62.792 117.331,63.25 C117.082,63.708 116.409,64.983 115.834,66.083 C115.26,67.183 114.623,68.383 114.419,68.75 C114.215,69.117 113.747,69.979 113.38,70.667 C113.013,71.354 112.412,72.479 112.044,73.167 C111.677,73.854 110.87,75.392 110.25,76.583 C109.629,77.775 108.992,78.975 108.834,79.25 C103.884,87.836 102.917,91.747 105.139,94.206 C107.277,96.573 109.935,96.834 131.854,96.834 L147.457,96.833 L149.082,96.421 C152.87,95.46 154.941,93.17 157.901,86.667 C158.256,85.888 158.76,84.793 159.023,84.234 C159.86,82.451 160.619,82.608 151.708,82.712 C147.423,82.762 142.206,82.9 140.115,83.018 C130.633,83.552 127.671,82.082 129.272,77.635 C129.956,75.735 132.685,70.704 133.089,70.6 C133.275,70.551 139.215,70.508 146.289,70.503 C160.204,70.494 160.599,70.47 162.443,69.529 C163.211,69.137 164.25,68.025 164.749,67.06 C164.932,66.706 165.614,65.442 166.265,64.25 C168.279,60.56 169.473,58.196 169.373,58.096 C169.321,58.043 162.61,58 154.461,58 L139.644,58 L139.763,57.626 C140.106,56.544 142.569,52.947 143.829,51.687 C147.188,48.328 148.128,48.152 162.667,48.172 C175.759,48.19 175.615,48.213 177.94,45.804 C179.479,44.21 184.315,35.557 183.886,35.164 C183.708,35.002 147.95,34.865 145.667,35.018 M200.5,35.268 C196.537,36.124 195.02,37.982 189.089,49.25 C188.105,51.118 187.182,52.865 185.918,55.25 C185.53,55.983 184.855,57.258 184.418,58.083 C183.982,58.908 183.381,60.033 183.084,60.583 C182.787,61.133 182.196,62.24 181.772,63.042 C180.552,65.347 179.635,67.073 178.295,69.583 C177.611,70.867 176.542,72.892 175.92,74.083 C174.789,76.249 174.026,77.681 173.167,79.25 C172.916,79.708 172.239,80.983 171.662,82.083 C171.086,83.183 170.112,85.021 169.499,86.167 C168.886,87.313 167.873,89.225 167.248,90.417 C166.622,91.608 165.676,93.397 165.144,94.392 C164.613,95.387 164.131,96.351 164.073,96.533 C163.968,96.862 164.033,96.864 170.692,96.782 C182.666,96.635 184.086,95.97 187.496,88.917 C188.293,87.267 189.454,84.979 190.075,83.833 C190.696,82.688 191.732,80.737 192.377,79.5 C193.022,78.262 193.94,76.537 194.418,75.667 C194.895,74.796 195.719,73.258 196.249,72.25 C196.778,71.242 197.492,69.892 197.835,69.25 C198.178,68.608 199.114,66.846 199.915,65.333 C201.741,61.887 202.699,60.083 203.522,58.542 C203.876,57.877 204.467,56.771 204.833,56.083 C205.2,55.396 205.79,54.29 206.145,53.625 C206.5,52.96 207.129,51.779 207.542,51 C207.956,50.221 209.192,47.896 210.289,45.833 C211.387,43.771 212.642,41.408 213.079,40.583 C213.516,39.758 214.314,38.251 214.853,37.233 C215.392,36.215 215.833,35.297 215.833,35.191 C215.833,34.889 201.931,34.958 200.5,35.268 M38.099,43.308 C38.043,43.399 37.733,44.51 37.41,45.778 C35.981,51.386 35.175,52.248 30.417,53.245 C28.709,53.603 28.349,54 29.733,54 C30.121,54 32.069,54.685 33.116,55.188 C35.378,56.277 36.745,58.571 37.328,62.25 C38.072,66.957 38.191,67.32 38.491,65.808 C38.606,65.226 38.759,64.525 38.831,64.25 C38.903,63.975 39.091,63.112 39.25,62.333 C40.369,56.839 41.949,54.93 46.069,54.088 C47.502,53.796 48.21,53.514 47.534,53.505 C47.324,53.502 46.401,53.314 45.484,53.087 C41.148,52.014 40.389,51.147 38.915,45.583 C38.246,43.06 38.249,43.066 38.099,43.308 M302.208,66.448 C302.369,66.49 302.631,66.49 302.792,66.448 C302.952,66.406 302.821,66.372 302.5,66.372 C302.179,66.372 302.048,66.406 302.208,66.448 M226.311,83.877 C226.381,83.948 228.721,83.985 231.511,83.961 L236.583,83.916 L231.383,83.833 C228.523,83.787 226.24,83.807 226.311,83.877" id="path0" fill="#06A3EA"></path>
                    <path d="M310.823,0.066 C310.772,0.117 309.985,0.24 309.074,0.341 C301.975,1.123 295.171,4.282 289.375,9.486 C287.302,11.348 287.3,11.057 289.398,13.148 L291.129,14.873 L292.838,13.269 C300.165,6.399 311.596,3.45 321,6.004 C322.506,6.413 323.441,6.704 323.706,6.845 C323.865,6.93 324.079,7 324.181,7 C324.699,7 328.737,9.029 330.5,10.174 C332.231,11.3 333.323,12.174 335.04,13.813 L336.163,14.884 L337.915,13.161 C339.991,11.118 339.929,11.419 338.542,10.104 C335.136,6.875 331.908,4.736 327.5,2.787 C325.181,1.762 321.328,0.742 318.167,0.317 C316.628,0.11 310.972,-0.083 310.823,0.066 M312.75,10.276 C305.529,10.892 300.608,12.961 296.002,17.317 L294.753,18.497 L296.499,20.249 C298.555,22.312 298.339,22.26 299.589,20.986 C307.01,13.424 320.849,13.664 328.24,21.482 C328.913,22.195 328.88,22.21 330.807,20.277 L332.524,18.554 L330.971,17.092 C326.259,12.657 318.569,9.78 312.75,10.276 M311.5,20.679 C308.63,21.04 305.616,22.457 303.257,24.552 C301.885,25.772 301.852,25.609 303.884,27.634 L305.601,29.345 L306.585,28.436 C310.634,24.698 316.74,24.747 320.783,28.55 L321.649,29.365 L323.443,27.599 L325.237,25.833 L324.41,24.985 C321.195,21.687 316.342,20.069 311.5,20.679 M232.217,35.28 C232.039,35.538 231.569,36.387 231.173,37.167 C230.776,37.946 230.248,38.958 230,39.417 C229.435,40.457 228.077,43.042 226.498,46.083 C225.832,47.367 225.007,48.942 224.666,49.583 C224.326,50.225 223.633,51.538 223.128,52.5 C222.623,53.462 221.835,54.962 221.377,55.833 C220.919,56.704 219.96,58.542 219.247,59.917 C218.533,61.292 217.877,62.51 217.788,62.625 C217.658,62.791 222.425,62.833 241.499,62.833 L265.372,62.833 L267.203,61.913 C279.776,55.593 285.363,40.656 276.734,36.431 C273.638,34.915 274.574,34.974 252.228,34.886 L232.54,34.809 L232.217,35.28 M301.544,35.042 C301.454,35.156 300.892,36.188 300.295,37.333 C299.698,38.479 298.929,39.942 298.586,40.583 C297.371,42.852 296.532,44.441 295.418,46.583 C294.797,47.775 294.084,49.125 293.833,49.583 C293.582,50.042 292.906,51.317 292.33,52.417 C291.754,53.517 291.043,54.867 290.75,55.417 C290.457,55.967 289.745,57.317 289.169,58.417 C288.592,59.517 287.868,60.883 287.56,61.453 C287.252,62.023 287,62.567 287,62.663 C287,62.781 290.037,62.822 296.597,62.793 L306.194,62.75 L307.162,60.884 C307.694,59.858 308.466,58.396 308.876,57.634 C309.287,56.873 310.056,55.425 310.586,54.417 C311.961,51.798 312.95,49.925 313.667,48.583 C314.443,47.133 315.59,44.947 317.166,41.917 C317.833,40.633 318.509,39.358 318.669,39.083 C319.512,37.629 320.667,35.324 320.667,35.095 C320.667,34.743 301.82,34.69 301.544,35.042 M330.551,35.043 C330.467,35.157 330.074,35.887 329.678,36.667 C329.282,37.446 328.903,38.158 328.837,38.25 C328.77,38.342 328.075,39.654 327.293,41.167 C326.51,42.679 325.553,44.517 325.165,45.25 C323.123,49.108 322.667,50.006 322.667,50.162 C322.667,50.277 325.852,50.333 332.425,50.333 L342.184,50.333 L341.363,51.875 C340.912,52.723 340.073,54.317 339.5,55.417 C338.308,57.702 336.841,60.5 336.143,61.815 C335.881,62.309 335.667,62.741 335.667,62.773 C335.667,62.806 339.998,62.833 345.292,62.833 L354.917,62.833 L355.958,60.791 C356.531,59.669 357.596,57.625 358.325,56.25 C359.055,54.875 360.049,52.981 360.534,52.042 L361.417,50.334 L367.917,50.329 C378.524,50.319 380.574,49.727 383.479,45.833 C383.719,45.512 383.956,45.212 384.007,45.167 C384.462,44.758 389.167,35.399 389.167,34.904 C389.167,34.705 330.699,34.845 330.551,35.043 M255.917,47.671 C259.727,48.209 260.417,50.053 258.255,53.918 C255.832,58.252 253.032,59.33 244.196,59.332 L238.976,59.333 L240.01,57.375 C240.579,56.298 241.457,54.629 241.961,53.667 C245.083,47.707 245.043,47.78 245.25,47.628 C245.5,47.444 254.572,47.481 255.917,47.671 M215.712,66.708 C215.623,66.823 214.966,68.042 214.252,69.417 C213.539,70.792 212.675,72.442 212.333,73.083 C211.671,74.327 210.362,76.826 208.666,80.083 C208.094,81.183 207.344,82.608 207.001,83.25 C206.658,83.892 205.869,85.392 205.249,86.583 C204.629,87.775 203.88,89.2 203.585,89.75 C203.29,90.3 202.463,91.875 201.748,93.25 C201.032,94.625 200.308,96.011 200.14,96.331 C199.971,96.65 199.833,97.007 199.833,97.123 C199.833,97.38 232.511,97.421 235.25,97.168 C236.83,97.022 237.814,96.916 241.5,96.498 C243.41,96.281 246.469,95.725 247.404,95.425 C247.778,95.305 248.492,95.079 248.991,94.923 C261.737,90.931 273.102,73.667 267.25,67.188 L266.628,66.5 L241.251,66.5 C221.147,66.5 215.84,66.543 215.712,66.708 M284.44,67.375 C284.181,67.856 283.554,69.037 283.047,70 C282.539,70.962 281.843,72.275 281.499,72.917 C281.155,73.558 280.424,74.946 279.875,76 C279.325,77.054 278.614,78.404 278.295,79 C277.976,79.596 277.28,80.908 276.75,81.917 C275.665,83.978 274.698,85.81 273.562,87.958 C270.321,94.084 269,96.624 269,96.729 C269,96.786 273.331,96.832 278.625,96.83 L288.25,96.827 L288.679,95.955 C289.076,95.15 289.761,93.839 291.836,89.917 C292.884,87.935 293.758,86.281 294.827,84.25 C295.309,83.333 296.062,81.908 296.5,81.083 C298.13,78.011 298.644,77.038 299.583,75.25 C300.112,74.242 300.787,72.967 301.083,72.417 C301.379,71.867 302.128,70.442 302.748,69.25 C303.368,68.058 303.94,67.012 304.021,66.925 C304.101,66.838 304.167,66.707 304.167,66.633 C304.167,66.56 299.834,66.5 294.539,66.5 L284.912,66.5 L284.44,67.375 M332.488,68.792 C331.826,70.052 330.91,71.796 330.454,72.667 C329.998,73.537 329.269,74.925 328.835,75.75 C328.4,76.575 327.594,78.112 327.043,79.167 C325.176,82.737 324.295,84.413 323.584,85.75 C323.194,86.483 322.405,87.983 321.832,89.083 C320.282,92.06 319.024,94.454 318.394,95.629 C318.086,96.204 317.833,96.711 317.833,96.756 C317.833,96.8 322.165,96.817 327.458,96.793 L337.083,96.75 L338.09,94.833 C339.348,92.437 341.179,88.938 342.612,86.19 C343.216,85.031 343.954,83.633 344.25,83.083 C344.547,82.533 345.335,81.033 346.001,79.75 C346.667,78.467 347.492,76.892 347.834,76.25 C348.175,75.608 349.003,74.033 349.673,72.75 C350.343,71.467 351.328,69.598 351.862,68.597 C352.396,67.596 352.833,66.715 352.833,66.639 C352.833,66.562 348.527,66.5 343.263,66.5 L333.694,66.5 L332.488,68.792 M246.311,71.563 C252.764,73.448 247.566,82.37 239.25,83.683 C237.987,83.882 226.842,84.103 226.41,83.937 C226.144,83.835 226.338,83.425 229.288,77.833 C229.65,77.146 230.532,75.458 231.247,74.083 C231.961,72.708 232.626,71.482 232.725,71.357 C232.998,71.011 245.046,71.194 246.311,71.563" id="path1" fill="#33338A"></path>
                </g>
            </g>
        </g>
    </g>
</svg>