<?xml version="1.0" encoding="UTF-8"?>
<svg width="2000px" height="2000px" viewBox="0 0 2000 2000" version="1.1" xmlns="http://www.w3.org/2000/svg" xmlns:xlink="http://www.w3.org/1999/xlink">
    <!-- Generator: Sketch 51.3 (57544) - http://www.bohemiancoding.com/sketch -->
    <title>i_button</title>
    <desc>Created with Sketch.</desc>
    <defs></defs>
    <g id="Page-1" stroke="none" stroke-width="1" fill="none" fill-rule="evenodd">
        <g id="sockets" transform="translate(0.000000, -2487.000000)" fill="#000000" fill-rule="nonzero">
            <g id="i_button" transform="translate(349.000000, 2531.000000)">
                <path d="M1095.03032,0 L204.969677,0 C91.8979137,0 0,83.9280508 0,187.102281 L0,1723.89772 C0,1827.12851 91.9598708,1911 204.969677,1911 L1095.03032,1911 C1208.10209,1911 1300,1827.07195 1300,1723.89772 L1300,187.031575 C1300,83.8573448 1208.04013,0 1095.03032,0 Z M1251.1468,1723.95428 C1251.04437,1802.62992 1181.20611,1866.38364 1095.03032,1866.46935 L204.969677,1866.46935 C118.793891,1866.38364 48.9556348,1802.62992 48.8531973,1723.95428 L48.8531973,187.031575 C48.9641678,108.361453 118.79993,44.6163542 204.969677,44.5306541 L1095.03032,44.5306541 C1181.20611,44.6163699 1251.04437,108.370072 1251.1468,187.045717 L1251.1468,1723.95428 Z" id="Shape"></path>
                <g id="power" transform="translate(452.000000, 1379.000000)">
                    <path d="M200.00297,400 C89.7210422,400 0,310.283262 0,200.005942 C0,89.7286218 89.7180714,0 200.00297,0 C310.28787,0 400,89.7167388 400,200.005942 C400,310.295144 310.2849,400 200.00297,400 Z M200.00297,10.9323708 C95.7487894,10.9323708 10.9325332,95.7473672 10.9325332,200.005942 C10.9325332,304.264516 95.7487894,389.06763 200.00297,389.06763 C304.257152,389.06763 389.067466,304.252632 389.067466,200.005942 C389.067466,95.7592502 304.25121,10.9323708 200.00297,10.9323708 Z" id="Shape"></path>
                    <path d="M200,366.773162 C108.03902,366.773162 33.226837,291.962982 33.226837,200.004462 C33.226837,108.045942 108.03902,33.226837 200,33.226837 C291.96098,33.226837 366.773162,108.037019 366.773162,199.995538 C366.773162,291.954058 291.96098,366.773162 200,366.773162 Z M200,38.708951 C111.058279,38.708951 38.7001738,111.062146 38.7001738,200.004462 C38.7001738,288.946778 111.058279,361.299972 200,361.299972 C288.94172,361.299972 361.299826,288.946778 361.299826,200.004462 C361.299826,111.062146 288.94172,38.708951 200,38.708951 Z" id="Shape"></path>
                    <path d="M236.710288,154.884855 C234.032322,153.092573 230.596816,152.857985 227.697888,154.269459 C224.79896,155.680932 222.877028,158.524031 222.656066,161.727788 C222.435104,164.931544 223.94868,168.009231 226.626644,169.801513 C239.849334,178.627179 247.779418,193.431347 247.770728,209.27406 C247.770728,235.47748 226.34373,256.79461 200.008924,256.79461 C173.674118,256.79461 152.262011,235.474516 152.262011,209.271098 C152.258273,193.466037 160.153591,178.693829 173.325687,169.860777 C177.458883,167.078693 178.542868,161.489467 175.746833,157.376891 C172.950799,153.264316 167.333548,152.18574 163.200351,154.967824 C145.052472,167.140924 134.176651,187.49674 134.185309,209.27406 C134.185309,245.38636 163.715552,274.760384 199.99999,274.760384 C236.284428,274.760384 265.814672,245.37747 265.814672,209.27406 C265.833748,187.449943 254.918694,167.052289 236.710288,154.884855 Z" id="Shape"></path>
                    <path d="M199.361022,221.086262 C201.734078,221.086262 204.009894,220.131872 205.68762,218.43313 C207.365348,216.73439 208.307492,214.43051 208.306708,212.028522 L208.306708,134.294371 C208.306708,129.293568 204.301588,125.239617 199.361022,125.239617 C194.420456,125.239617 190.415336,129.293568 190.415336,134.294371 L190.415336,212.028522 C190.414554,214.43051 191.356697,216.73439 193.034424,218.43313 C194.71215,220.131872 196.987968,221.086262 199.361022,221.086262 Z" id="Shape"></path>
                </g>
                <g id="type_i" transform="translate(218.000000, 222.000000)">
                    <path d="M432.37015,864.68037 C282.54336,864.68037 145.571709,788.768129 65.9637413,661.585162 C29.3106023,602.987624 7.21017542,536.470579 1.50825635,467.589434 C0.609295612,456.012818 0,444.176501 0,432.340185 C0.0436355071,414.267324 1.16098126,396.213017 3.34613164,378.272691 C11.6964781,311.350058 35.1393764,248.642552 72.9756351,191.838222 L73.0355658,191.778291 C153.942032,71.6871247 288.256755,0 432.37015,0 C670.774538,0 864.710335,193.965762 864.710335,432.37015 C864.710335,670.774538 670.774538,864.68037 432.37015,864.68037 Z M91.5241917,204.253868 C55.5657621,258.121594 33.3814088,317.592841 25.4705543,381.04948 C23.4014919,398.082078 22.34419,415.222376 22.3042148,432.380139 C22.3042148,443.637125 22.9135104,454.894111 23.7625289,465.861432 C29.1603159,531.15984 50.1142127,594.216754 84.8718822,649.758834 C160.444515,770.329446 290.2944,842.336201 432.37015,842.336201 C658.448788,842.336201 842.376155,658.408834 842.376155,432.330196 C842.376155,206.251559 658.438799,22.3042148 432.37015,22.3042148 C295.728118,22.3042148 168.305427,90.3056005 91.5241917,204.253868 Z" id="Shape"></path>
                    <rect id="Rectangle" x="410.525404" y="579.330254" width="44.948037" height="149.82679"></rect>
                    <rect id="Rectangle" transform="translate(581.313533, 349.797515) rotate(-30.000000) translate(-581.313533, -349.797515) " x="558.839514" y="274.88412" width="44.948037" height="149.82679"></rect>
                    <rect id="Rectangle" transform="translate(281.659953, 349.797515) rotate(30.000000) translate(-281.659953, -349.797515) " x="259.185935" y="274.88412" width="44.948037" height="149.82679"></rect>
                </g>
                <path d="M651.81168,1128.87457 C487.495354,1128.87457 337.27737,1045.58932 249.970629,906.053669 C209.772817,841.764827 185.535089,768.787293 179.281745,693.216045 C178.295847,680.515046 177.627628,667.529123 177.627628,654.5432 C177.675483,634.715007 178.900886,614.907169 181.297359,595.224383 C190.455256,521.801867 216.165283,453.003875 257.660633,390.682407 L257.726359,390.616655 C346.457174,258.861595 493.761284,180.211835 651.81168,180.211835 C913.271817,180.211835 1125.96287,393.016584 1125.96287,654.576076 C1125.96287,916.135567 913.271817,1128.87457 651.81168,1128.87457 Z M278.002994,404.303926 C238.567076,463.403572 214.237305,528.650983 205.561403,598.270869 C203.292245,616.957764 202.132692,635.762819 202.088851,654.587034 C202.088851,666.93736 202.757071,679.287683 203.688197,691.32021 C209.607996,762.960746 232.588315,832.142084 270.707349,893.078706 C353.588504,1025.35978 495.995986,1104.36021 651.81168,1104.36021 C899.754063,1104.36021 1101.46878,902.568839 1101.46878,654.532241 C1101.46878,406.495643 899.743107,204.682354 651.81168,204.682354 C501.955192,204.682354 362.209633,279.288396 278.002994,404.303926 Z" id="Shape"></path>
            </g>
        </g>
    </g>
</svg>